<?xml version="1.0" encoding="UTF-8" standalone="no"?>
<!-- Created with Inkscape (http://www.inkscape.org/) -->

<svg
   width="68.986038mm"
   height="35.917702mm"
   viewBox="0 0 68.986038 35.917702"
   version="1.1"
   id="svg14675"
   inkscape:version="1.1.1 (3bf5ae0d25, 2021-09-20)"
   sodipodi:docname="logo1.svg"
   inkscape:export-filename="C:\Users\shiva\bitmap.png"
   inkscape:export-xdpi="100"
   inkscape:export-ydpi="100"
   xmlns:inkscape="http://www.inkscape.org/namespaces/inkscape"
   xmlns:sodipodi="http://sodipodi.sourceforge.net/DTD/sodipodi-0.dtd"
   xmlns="http://www.w3.org/2000/svg"
   xmlns:svg="http://www.w3.org/2000/svg">
  <sodipodi:namedview
     id="namedview14677"
     pagecolor="#ffffff"
     bordercolor="#666666"
     borderopacity="1.0"
     inkscape:pageshadow="2"
     inkscape:pageopacity="0.0"
     inkscape:pagecheckerboard="0"
     inkscape:document-units="mm"
     showgrid="false"
     fit-margin-top="0"
     fit-margin-left="0"
     fit-margin-right="0"
     fit-margin-bottom="0"
     inkscape:zoom="3.0716611"
     inkscape:cx="124.85101"
     inkscape:cy="66.250798"
     inkscape:window-width="1920"
     inkscape:window-height="1051"
     inkscape:window-x="-9"
     inkscape:window-y="-9"
     inkscape:window-maximized="1"
     inkscape:current-layer="g29667" />
  <defs
     id="defs14672" />
  <g
     inkscape:label="Layer 1"
     inkscape:groupmode="layer"
     id="layer1"
     transform="translate(-86.537941,-130.67107)">
    <g
       id="g15014">
      <g
         id="g29667"
         transform="matrix(0.26458333,0,0,0.26458333,52.906533,84.748287)">
        <path
           id="text24363"
           style="font-size:189.333px;line-height:1.25;font-family:'FONTSPRING DEMO - The Seasons Light';-inkscape-font-specification:'FONTSPRING DEMO - The Seasons Light, ';fill:#ffffff;fill-opacity:1"
           d="m 183.32581,173.56641 c -25.74929,0 -43.35742,13.4429 -43.35742,34.26953 0,9.70253 3.42163,16.86836 10.58008,22.98828 h 22.80273 c -13.1705,-6.1247 -24.67383,-13.9894 -24.67383,-28.10156 0,-17.60797 14.19931,-26.31641 29.72461,-26.31641 25.18129,0 35.40631,13.06298 41.6543,26.12695 l 1.51367,-0.37695 -0.75781,-19.12305 c -4.73333,-3.02932 -16.6597,-9.46679 -37.48633,-9.46679 z m 57.17774,1.32421 v 2.08399 c 6.24798,1.51466 10.22265,5.68046 10.22265,25.37109 v 28.47852 h 3.4082 v -40.78516 l 24.85157,40.78516 h 12.56836 l -34.20117,-55.9336 z m 121.92968,0 -5.11133,8.33204 -0.18945,0.3789 -29.00781,47.22266 h 3.23828 l 25.76953,-41.92188 v 41.92188 h 10.60156 V 202.3457 c 0,-19.69063 3.97662,-23.85643 10.22461,-25.37109 v -2.08399 z m -225.43554,101.28126 1.07617,19.70312 c 7.95198,5.67999 23.66715,13.44336 43.92578,13.44336 22.18875,0 41.39536,-13.45765 42.875,-33.14648 h -9.28711 c 0.19362,1.22143 0.30273,2.48333 0.30273,3.79882 0,15.14664 -14.01093,26.50782 -31.24023,26.50782 -25.39776,0 -37.37602,-14.04027 -44.17187,-30.30664 z m 113.72851,0 v 7.20703 c 0,17.41863 -2.27094,20.63756 -7.57226,21.96289 v 2.08203 h 22.34179 v -2.08203 c -7.00532,-1.51467 -11.36133,-5.68047 -11.36133,-25.3711 v -3.79882 z m 106.40625,0 v 7.20703 c 0,17.41863 -2.27289,20.63756 -7.57422,21.96289 v 2.08203 h 25.75 v -2.08203 c -5.30132,-1.32533 -7.57422,-4.54426 -7.57422,-21.96289 v -7.20703 z" />
        <text
           xml:space="preserve"
           style="font-style:normal;font-variant:normal;font-weight:normal;font-stretch:normal;font-size:29.7333px;line-height:1.25;font-family:Halimun;-inkscape-font-specification:Halimun;fill:#000000;fill-opacity:1"
           x="128.35963"
           y="261.02094"
           id="text27661"><tspan
             sodipodi:role="line"
             id="tspan27659"
             x="128.35963"
             y="261.02094">cursed ninja</tspan></text>
      </g>
    </g>
  </g>
</svg>
