<?xml version="1.0" encoding="UTF-8" standalone="no"?>
<!-- Created with Inkscape (http://www.inkscape.org/) -->

<svg
   width="68.986038mm"
   height="35.917702mm"
   viewBox="0 0 68.986038 35.917702"
   version="1.1"
   id="svg14675"
   inkscape:version="1.1.1 (3bf5ae0d25, 2021-09-20)"
   sodipodi:docname="logo-header.svg"
   inkscape:export-filename="C:\Users\shiva\bitmap.png"
   inkscape:export-xdpi="100"
   inkscape:export-ydpi="100"
   xmlns:inkscape="http://www.inkscape.org/namespaces/inkscape"
   xmlns:sodipodi="http://sodipodi.sourceforge.net/DTD/sodipodi-0.dtd"
   xmlns="http://www.w3.org/2000/svg"
   xmlns:svg="http://www.w3.org/2000/svg">
  <sodipodi:namedview
     id="namedview14677"
     pagecolor="#ffffff"
     bordercolor="#666666"
     borderopacity="1.0"
     inkscape:pageshadow="2"
     inkscape:pageopacity="0.0"
     inkscape:pagecheckerboard="0"
     inkscape:document-units="mm"
     showgrid="false"
     fit-margin-top="0"
     fit-margin-left="0"
     fit-margin-right="0"
     fit-margin-bottom="0"
     inkscape:zoom="3.0716611"
     inkscape:cx="124.85101"
     inkscape:cy="66.250798"
     inkscape:window-width="1920"
     inkscape:window-height="1051"
     inkscape:window-x="-9"
     inkscape:window-y="-9"
     inkscape:window-maximized="1"
     inkscape:current-layer="g29667" />
  <defs
     id="defs14672" />
  <g
     inkscape:label="Layer 1"
     inkscape:groupmode="layer"
     id="layer1"
     transform="translate(-86.537941,-130.67107)">
    <g
       id="g15014">
      <g
         id="g29667"
         transform="matrix(0.26458333,0,0,0.26458333,52.906533,84.748287)">
        <path
           id="text24363"
           style="font-size:189.333px;line-height:1.25;font-family:'FONTSPRING DEMO - The Seasons Light';-inkscape-font-specification:'FONTSPRING DEMO - The Seasons Light, ';fill:#141c3a;fill-opacity:1"
           d="m 183.32581,173.56641 c -25.74929,0 -43.35742,13.4429 -43.35742,34.26953 0,9.70253 3.42163,16.86836 10.58008,22.98828 h 22.80273 c -13.1705,-6.1247 -24.67383,-13.9894 -24.67383,-28.10156 0,-17.60797 14.19931,-26.31641 29.72461,-26.31641 25.18129,0 35.40631,13.06298 41.6543,26.12695 l 1.51367,-0.37695 -0.75781,-19.12305 c -4.73333,-3.02932 -16.6597,-9.46679 -37.48633,-9.46679 z m 57.17774,1.32421 v 2.08399 c 6.24798,1.51466 10.22265,5.68046 10.22265,25.37109 v 28.47852 h 3.4082 v -40.78516 l 24.85157,40.78516 h 12.56836 l -34.20117,-55.9336 z m 121.92968,0 -5.11133,8.33204 -0.18945,0.3789 -29.00781,47.22266 h 3.23828 l 25.76953,-41.92188 v 41.92188 h 10.60156 V 202.3457 c 0,-19.69063 3.97662,-23.85643 10.22461,-25.37109 v -2.08399 z m -225.43554,101.28126 1.07617,19.70312 c 7.95198,5.67999 23.66715,13.44336 43.92578,13.44336 22.18875,0 41.39536,-13.45765 42.875,-33.14648 h -9.28711 c 0.19362,1.22143 0.30273,2.48333 0.30273,3.79882 0,15.14664 -14.01093,26.50782 -31.24023,26.50782 -25.39776,0 -37.37602,-14.04027 -44.17187,-30.30664 z m 113.72851,0 v 7.20703 c 0,17.41863 -2.27094,20.63756 -7.57226,21.96289 v 2.08203 h 22.34179 v -2.08203 c -7.00532,-1.51467 -11.36133,-5.68047 -11.36133,-25.3711 v -3.79882 z m 106.40625,0 v 7.20703 c 0,17.41863 -2.27289,20.63756 -7.57422,21.96289 v 2.08203 h 25.75 v -2.08203 c -5.30132,-1.32533 -7.57422,-4.54426 -7.57422,-21.96289 v -7.20703 z" />
        <g
           aria-label="cursed ninja"
           id="text27661"
           style="font-size:29.7333px;line-height:1.25;font-family:Halimun;-inkscape-font-specification:Halimun;fill:#7510f7">
          <path
             d="m 152.91934,253.34974 q 0.32707,0 0.5352,0.23787 0.23787,0.23787 0.20813,0.56493 0,0.32707 -0.2676,0.5352 -3.62746,3.0328 -8.08746,4.66813 -4.45999,1.63533 -9.21732,1.66507 -2.3192,0 -4.60866,-0.41627 -1.338,-0.23787 -2.25973,-0.68387 -0.92173,-0.47573 -1.338,-1.04066 -0.446,-0.56494 -0.59466,-1.04067 -0.1784,-0.50546 -0.1784,-1.01093 0,-1.48667 1.12986,-3.06253 1.10013,-1.6056 2.61653,-2.676 1.54613,-1.0704 2.8544,-1.338 1.81373,-0.50546 3.27066,0.6244 1.21907,1.1596 1.21907,2.8544 -0.0297,0.32707 -0.2676,0.56493 -0.20814,0.20814 -0.5352,0.20814 -0.32707,0 -0.56494,-0.23787 -0.20813,-0.23787 -0.20813,-0.56493 0.0297,-0.95147 -0.65413,-1.63533 -0.92173,-0.59467 -1.9624,-0.2676 -1.63533,0.29733 -3.50853,2.17053 -1.84346,1.84346 -1.84346,3.35986 0.0297,1.6948 3.09226,2.25973 1.90293,0.32707 3.8356,0.3568 1.96239,0.0297 3.56799,-0.1784 1.63533,-0.23787 3.24093,-0.65413 1.6056,-0.41627 2.8544,-0.92173 1.2488,-0.50547 2.4084,-1.10014 1.18933,-0.6244 1.96239,-1.10013 0.8028,-0.47573 1.48667,-0.9812 0.68386,-0.50546 0.92173,-0.68386 0.23787,-0.20814 0.32707,-0.29734 0.23786,-0.20813 0.56493,-0.1784 z"
             id="path826" />
          <path
             d="m 177.44927,252.45774 q 0.32707,-0.0297 0.56494,0.20814 0.23786,0.20813 0.23786,0.5352 0,0.32706 -0.20813,0.56493 -1.6056,1.66506 -3.89506,3.33013 -2.25973,1.63533 -5.14386,2.88413 -2.88413,1.21906 -5.20333,1.21906 h -0.0595 q -2.5868,0.0892 -4.34106,-1.78399 -0.74333,-0.83254 -0.892,-1.93267 -0.0595,-0.41626 -0.47573,-0.5352 -0.38653,-0.11893 -0.68387,0.1784 -3.53826,3.68693 -5.56012,2.46787 -0.7136,-0.41627 -0.83254,-1.338 -0.14866,-0.95147 0.23787,-2.11107 0.38653,-1.15959 0.8028,-2.02186 0.38653,-0.86227 0.86226,-1.72453 0.1784,-0.2676 0.47574,-0.32707 0.29733,-0.0892 0.56493,0.0595 0.2676,0.14867 0.3568,0.446 0.0892,0.29733 -0.0297,0.59466 -0.7136,1.21907 -1.18934,2.4084 -0.446,1.18933 -0.5352,1.84347 -0.0595,0.6244 0.0892,0.83253 0.74334,0.446 2.7652,-1.4272 2.0516,-1.8732 3.8356,-4.48973 0.1784,-0.2676 0.446,-0.32706 0.29733,-0.0595 0.56493,0.0892 0.2676,0.11893 0.3568,0.38653 0.11893,0.2676 0.0297,0.5352 -0.23786,0.68386 -0.446,1.6056 -0.1784,0.89199 -0.14866,2.05159 0.0595,1.1596 0.5352,1.6948 1.33799,1.338 3.21119,1.27853 h 0.0595 q 2.08133,0 4.72759,-1.18933 2.676,-1.18933 4.78706,-2.70573 2.1408,-1.54613 3.568,-3.06253 0.23787,-0.23787 0.56493,-0.23787 z"
             id="path828" />
          <path
             d="m 201.89003,252.96321 q 0.32707,0 0.5352,0.23787 0.23787,0.23786 0.23787,0.56493 0,0.29733 -0.23787,0.5352 -2.88413,2.79493 -7.10626,4.31133 -4.22212,1.48666 -7.73065,1.48666 -1.6948,0.0892 -3.27067,-0.6244 -0.68386,-0.38653 -1.10013,-0.86226 -0.41626,-0.47573 -0.5352,-1.01093 -0.11893,-0.56494 -0.14866,-1.01094 0,-0.446 0.20813,-1.01093 0.20813,-0.59466 0.32707,-0.892 0.14866,-0.32706 0.38653,-0.8028 0.0892,-0.1784 -0.14867,-0.20813 -0.11893,0 -0.32706,0.11893 -1.63534,0.892 -3.50853,0.8028 -0.83254,0.0297 -1.63534,-0.32706 -0.29733,0.0892 -0.59466,-0.0595 -0.47573,-0.23787 -0.41627,-0.77307 -0.446,-0.5352 -0.6244,-1.21906 -0.3568,-1.21907 0.0595,-2.4084 0.41627,-1.18933 1.45693,-1.9624 1.2488,-0.74333 1.9624,-0.0595 0.9812,0.92173 -0.65413,4.60866 -0.0595,0.14866 0.0892,0.41626 0.14866,0.23787 0.3568,0.23787 1.72453,0 3.24093,-0.86226 0.446,-0.2676 0.7136,-0.3568 0.26759,-0.11894 0.71359,-0.0892 0.446,0 0.83254,0.29733 0.38653,0.29733 0.41626,0.77306 0.0297,0.47574 -0.11893,0.83254 -0.11893,0.32706 -0.41627,0.92173 -0.74333,1.36773 -0.74333,2.20026 0.0297,0.8028 1.01093,1.36774 0.59467,0.35679 1.93267,0.41626 1.338,0.0595 3.15173,-0.23787 1.81373,-0.29733 3.74639,-0.89199 1.93267,-0.59467 3.9248,-1.6948 1.99213,-1.12987 3.44906,-2.55707 0.23787,-0.20813 0.56493,-0.20813 z m -24.23263,-1.39746 q 0.53519,-1.12987 0.83253,-2.34893 -1.10013,0.95146 -0.83253,2.34893 z"
             id="path830" />
          <path
             d="m 221.27612,252.54694 q 0.32707,0 0.5352,0.23787 0.23787,0.20813 0.23787,0.5352 0,0.32707 -0.20814,0.56493 -2.58679,2.5868 -6.71972,4.48973 -4.13293,1.90293 -7.73066,1.90293 -0.77306,0 -1.48666,-0.0892 -1.48667,-0.11893 -2.73547,-0.892 -1.2488,-0.8028 -1.99213,-2.08133 -0.14867,-0.2676 -0.0595,-0.56493 0.0595,-0.29733 0.32707,-0.47573 0.2676,-0.1784 0.56493,-0.0892 0.32707,0.0595 0.50547,0.32706 0.9812,1.30827 2.55706,1.66507 1.6056,0.32706 3.0328,-0.47573 0.6244,-0.3568 0.74333,-1.04067 0.14867,-0.7136 -0.3568,-1.2488 -0.50546,-0.5352 -1.12986,-0.92173 -1.2488,-0.74333 -2.08133,-1.90293 -0.11894,-0.20813 -0.3568,-0.23787 -0.23787,-0.0297 -0.38654,0.11893 l -2.25973,2.1408 q -0.32706,0.29734 -0.77306,0.1784 -0.446,-0.11893 -0.5352,-0.56493 -0.11894,-0.446 0.23786,-0.77307 l 4.5492,-4.28159 q 0.77307,-0.92173 1.75426,-1.63533 0.23787,-0.1784 0.5352,-0.14867 0.32707,0.0297 0.5352,0.2676 0.20814,0.23787 0.1784,0.56493 -0.0297,0.29734 -0.23786,0.50547 l -1.63534,1.5164 q -0.38653,0.446 -0.41626,1.04066 0,0.47574 0.446,0.92174 0.47573,0.41626 1.338,1.01093 0.92173,0.5352 1.57586,1.36773 0.50547,0.7136 0.56493,1.6056 0.0892,0.86226 -0.32706,1.63533 -0.11894,0.23787 0.0297,0.446 0.1784,0.20813 0.446,0.14866 5.82773,-1.39746 10.19852,-5.53039 0.20814,-0.23787 0.5352,-0.23787 z"
             id="path832" />
          <path
             d="m 244.55727,253.08214 q 0.32706,0.0297 0.53519,0.29734 0.20814,0.23786 0.1784,0.56493 -0.0297,0.32707 -0.29733,0.5352 -0.446,0.3568 -1.10013,0.83253 -0.65413,0.47573 -2.52733,1.6056 -1.8732,1.10013 -3.7464,1.93266 -1.84346,0.83254 -4.45999,1.5164 -2.61653,0.68387 -4.9952,0.68387 -3.03279,0.0297 -5.82772,-1.10013 -0.892,-0.3568 -1.5164,-0.83254 -0.59467,-0.50546 -0.892,-0.95146 -0.29733,-0.47573 -0.41627,-0.9812 -0.14866,-0.5352 -0.11893,-0.92173 0,-0.38654 0.0892,-0.77307 0.32707,-1.39746 1.54613,-2.7652 1.21907,-1.36773 2.70573,-2.14079 1.5164,-0.77307 2.70573,-0.7136 0.8028,0 1.36773,0.56493 0.59467,0.56493 0.65414,1.39747 0.14866,1.42719 -1.6056,2.58679 -2.52733,1.57587 -5.53039,1.39747 -0.14867,-0.0297 -0.2676,0.0595 -0.11894,0.0892 -0.0892,0.23787 -0.20814,1.5164 1.96239,2.37866 1.93267,0.8028 4.16267,0.95147 2.22999,0.11893 4.16266,-0.23787 1.93266,-0.3568 3.95453,-1.10013 2.02186,-0.74333 3.44906,-1.48666 1.45693,-0.77307 2.79493,-1.6056 1.36773,-0.86227 1.84346,-1.21907 0.50547,-0.3568 0.7136,-0.5352 0.2676,-0.20813 0.56494,-0.1784 z m -22.56758,0.92174 q -0.38653,0.5352 0.32707,0.47573 1.2488,-0.0892 3.18146,-1.0704 0.29733,-0.1784 0.50547,-0.29733 0.92173,-0.6244 0.86226,-1.12987 -0.0297,-0.32706 -0.14866,-0.41626 -0.11894,-0.11894 -0.38654,-0.14867 -0.95146,-0.0595 -2.22999,0.68387 -1.2488,0.74333 -2.11107,1.90293 z"
             id="path834" />
          <path
             d="m 271.07931,253.97414 q 0.32707,0 0.5352,0.23787 0.23787,0.23787 0.23787,0.56493 0,0.29734 -0.23787,0.5352 -1.36773,1.338 -3.06253,2.43813 -1.6948,1.10013 -3.35986,1.784 -1.63533,0.65413 -3.35986,1.10013 -1.6948,0.41627 -3.06253,0.38654 -1.36774,0 -2.46787,-0.2676 -1.6056,-0.56494 -2.79493,-1.75427 -1.1596,-1.21906 -1.66506,-2.82466 -0.0892,-0.2676 -0.38654,-0.29734 -0.2676,-0.0297 -0.41626,0.20814 -3.568,5.05466 -5.91693,5.05466 -0.14866,0 -0.29733,-0.0297 -0.7136,-0.0892 -1.27853,-0.50546 -0.5352,-0.446 -0.77307,-1.12987 -0.446,-1.48666 0,-3.21119 0.41627,-1.72453 1.18933,-2.676 2.11107,-2.43813 4.16267,-1.84346 0.77306,0.23786 1.33799,0.86226 0.59467,0.59467 0.83254,1.39747 0.0297,0.29733 -0.1784,0.56493 -0.1784,0.2676 -0.47574,0.29733 -0.32706,0.0595 -0.59466,-0.11893 -0.23787,-0.20813 -0.29734,-0.50547 -0.32706,-0.77306 -1.15959,-1.01093 -1.04067,-0.23787 -2.43813,1.36773 -1.338,1.99213 -0.92174,4.34106 0.1784,0.59467 0.8028,0.6244 0.65413,0.0892 1.99213,-1.12986 1.36773,-1.21907 3.18147,-3.89506 0.29733,-0.446 0.59466,-0.92174 0.32707,-0.5352 0.2676,-1.1596 -0.11893,-1.93266 0.0595,-3.86532 0.2676,-3.09227 1.18933,-6.0656 0.95147,-2.97333 2.4084,-5.02492 1.48666,-2.08134 3.09226,-2.28947 0.892,-0.14867 1.36773,0.6244 0.6244,1.01093 -0.1784,3.98426 -0.8028,2.9436 -2.40839,6.36293 -1.57587,3.38959 -3.44907,6.57106 -0.38653,0.65413 -0.23786,1.39746 0.86226,4.16266 3.86533,5.11413 0.89199,0.20813 2.02186,0.23787 1.1596,0 2.676,-0.38654 1.54613,-0.38653 3.03279,-0.98119 1.5164,-0.59467 3.122,-1.63534 1.6056,-1.04066 2.91386,-2.31919 0.20814,-0.20814 0.5352,-0.20814 z m -18.40491,-5.23306 q -0.0595,0.8028 0.11893,0.8028 0.11894,0 0.29734,-0.32706 4.43026,-7.8496 4.84652,-11.62572 0.0297,-0.32707 -0.23786,-0.47574 -0.2676,-0.14866 -0.50547,0.0297 -1.48666,1.07039 -2.82466,4.37079 -1.338,3.3004 -1.6948,7.22519 z"
             id="path836" />
          <path
             d="m 307.02685,253.40921 q 0.32707,0 0.56494,0.20813 0.23786,0.20814 0.23786,0.5352 0.0297,0.32707 -0.20813,0.56494 -0.1784,0.20813 -0.50547,0.5352 -0.32706,0.32706 -1.21906,1.07039 -0.892,0.74334 -1.81373,1.39747 -0.92174,0.65413 -2.25973,1.338 -1.30827,0.65413 -2.5868,1.04066 -1.27853,0.3568 -2.79493,0.32707 -1.48667,-0.0297 -2.82466,-0.56493 -2.3192,-1.1596 -3.59773,-3.41933 0,-0.0297 -0.14867,-0.23787 -0.11893,-0.20813 -0.23787,-0.32707 -0.0892,-0.14866 -0.2676,-0.32706 -0.14866,-0.1784 -0.3568,-0.2676 -0.1784,-0.0892 -0.38653,-0.0595 -2.37866,0.0595 -6.71972,5.14386 -0.38654,0.446 -0.92174,0.1784 -0.56493,-0.2676 -0.41626,-0.86226 l 1.48666,-6.54133 q 0.0595,-0.29733 0.32707,-0.47573 0.29733,-0.1784 0.59466,-0.0892 0.32707,0.0595 0.47574,0.3568 0.1784,0.2676 0.11893,0.56493 l -0.68387,2.9436 q -0.0297,0.14866 0.11894,0.23786 0.14866,0.0595 0.2676,-0.0595 3.30039,-3.122 5.56012,-2.97333 0.95147,0.0595 1.6056,0.77306 0.50547,0.5352 0.892,1.1596 1.01093,1.84347 2.8544,2.82466 0.92173,0.38654 1.93266,0.446 1.01094,0.0595 1.90293,-0.0892 0.92174,-0.1784 1.8732,-0.5352 0.95147,-0.38653 1.72453,-0.83253 0.8028,-0.446 1.57587,-0.9812 0.8028,-0.5352 1.338,-0.9812 0.5352,-0.44599 1.04066,-0.89199 0.50547,-0.446 0.65413,-0.6244 0.1784,-0.1784 0.2676,-0.2676 0.20814,-0.23787 0.5352,-0.23787 z"
             id="path838" />
          <path
             d="m 325.07492,252.75508 q 0.32707,0 0.56493,0.23786 0.23787,0.20814 0.23787,0.5352 0,0.32707 -0.20813,0.56494 -0.3568,0.3568 -0.92174,0.892 -0.56493,0.50546 -2.08133,1.69479 -1.48666,1.1596 -2.97333,2.08133 -1.48666,0.892 -3.50853,1.6056 -2.02186,0.7136 -3.80586,0.7136 -2.73546,0.0297 -4.90599,-1.6056 -0.83254,-0.59466 -1.18934,-1.57586 -0.35679,-0.9812 -0.32706,-1.81373 0.0297,-0.83253 0.29733,-1.784 0.2676,-0.95147 0.41627,-1.338 0.1784,-0.38653 0.29733,-0.6244 0.1784,-0.2676 0.47573,-0.3568 0.29734,-0.0892 0.56494,0.0595 0.29733,0.14867 0.38653,0.446 0.11893,0.29733 -0.0297,0.56493 -0.0595,0.14867 -0.20814,0.446 -0.11893,0.2676 -0.3568,0.9812 -0.20813,0.7136 -0.2676,1.338 -0.0595,0.6244 0.11894,1.338 0.20813,0.68386 0.74333,1.07039 1.30826,0.95147 2.91386,1.18934 1.6056,0.20813 3.06253,-0.14867 1.48667,-0.3568 3.0328,-1.10013 1.57586,-0.77307 2.73546,-1.57587 1.18933,-0.8028 2.25973,-1.69479 1.10013,-0.892 1.54613,-1.30827 0.446,-0.446 0.59467,-0.59467 0.23787,-0.23786 0.5352,-0.23786 z m -18.43465,-2.11107 q -0.59466,0 -0.74333,-0.59466 -0.14866,-0.59467 0.38653,-0.892 0.83254,-0.41627 1.48667,-1.10013 0.23787,-0.23787 0.5352,-0.23787 0.32707,0 0.56493,0.23787 0.23787,0.20813 0.23787,0.5352 0.0297,0.29733 -0.20813,0.5352 -0.83254,0.86226 -1.8732,1.39746 -0.1784,0.11893 -0.38654,0.11893 z"
             id="path840" />
          <path
             d="m 349.57509,253.40921 q 0.32706,0 0.56493,0.20813 0.23787,0.20814 0.23787,0.5352 0.0297,0.32707 -0.20814,0.56494 -0.1784,0.20813 -0.50546,0.5352 -0.32707,0.32706 -1.21907,1.07039 -0.892,0.74334 -1.81373,1.39747 -0.92173,0.65413 -2.25973,1.338 -1.30827,0.65413 -2.5868,1.04066 -1.27853,0.3568 -2.79493,0.32707 -1.48666,-0.0297 -2.82466,-0.56493 -2.3192,-1.1596 -3.59773,-3.41933 0,-0.0297 -0.14867,-0.23787 -0.11893,-0.20813 -0.23786,-0.32707 -0.0892,-0.14866 -0.2676,-0.32706 -0.14867,-0.1784 -0.3568,-0.2676 -0.1784,-0.0892 -0.38654,-0.0595 -2.37866,0.0595 -6.71972,5.14386 -0.38653,0.446 -0.92173,0.1784 -0.56494,-0.2676 -0.41627,-0.86226 l 1.48667,-6.54133 q 0.0595,-0.29733 0.32706,-0.47573 0.29733,-0.1784 0.59467,-0.0892 0.32706,0.0595 0.47573,0.3568 0.1784,0.2676 0.11893,0.56493 l -0.68386,2.9436 q -0.0297,0.14866 0.11893,0.23786 0.14867,0.0595 0.2676,-0.0595 3.3004,-3.122 5.56013,-2.97333 0.95146,0.0595 1.6056,0.77306 0.50546,0.5352 0.89199,1.1596 1.01094,1.84347 2.8544,2.82466 0.92173,0.38654 1.93267,0.446 1.01093,0.0595 1.90293,-0.0892 0.92173,-0.1784 1.87319,-0.5352 0.95147,-0.38653 1.72454,-0.83253 0.8028,-0.446 1.57586,-0.9812 0.8028,-0.5352 1.338,-0.9812 0.5352,-0.44599 1.04067,-0.89199 0.50546,-0.446 0.65413,-0.6244 0.1784,-0.1784 0.2676,-0.2676 0.20813,-0.23787 0.5352,-0.23787 z"
             id="path842" />
          <path
             d="m 348.35597,250.91161 q -0.62439,0 -0.77306,-0.59466 -0.14867,-0.59467 0.38653,-0.892 0.86227,-0.41627 1.48667,-1.10013 0.23786,-0.23787 0.56493,-0.23787 0.32707,0 0.5352,0.23787 0.23787,0.20813 0.23787,0.5352 0.0297,0.32706 -0.20814,0.56493 -0.8028,0.86226 -1.8732,1.39746 -0.1784,0.0892 -0.3568,0.0892 z m 15.69919,1.90293 q 0.32706,-0.0297 0.56493,0.20814 0.23787,0.20813 0.23787,0.5352 0.0297,0.32706 -0.20814,0.56493 -2.17053,2.11106 -5.20332,2.3192 -3.0328,0.1784 -5.47093,-1.63533 -0.1784,-0.11894 -0.32707,0.0297 -2.08133,2.02186 -3.89506,4.31133 -0.11893,0.14866 -0.1784,0.3568 -1.10013,5.26279 -2.55706,9.60385 -1.48667,4.34106 -2.82467,5.11413 -0.3568,0.20813 -0.74333,0.20813 -0.56493,-0.0297 -0.9812,-0.446 -0.9812,-1.04066 -0.86226,-2.46786 0.0595,-2.3192 1.90293,-5.79799 1.81373,-3.44907 4.57893,-6.98733 0.20813,-0.2676 0.29733,-0.6244 0.7136,-2.676 0.7136,-5.44119 -0.0595,-0.29734 0.0892,-0.56493 0.1784,-0.2676 0.47573,-0.3568 0.32707,-0.0892 0.59467,0.0892 0.29733,0.1784 0.3568,0.47573 0.0595,1.45693 -0.23787,2.88413 -0.0297,0.20813 0.14867,0.29733 0.20813,0.0892 0.3568,-0.0595 1.15959,-1.24879 2.14079,-2.17053 0.29734,-0.2676 0.65414,-0.2676 0.38653,-0.0297 0.71359,0.1784 1.45694,1.10014 2.91387,1.48667 1.48666,0.3568 2.46786,0.20813 1.01093,-0.14866 1.9624,-0.59466 0.95147,-0.47574 1.27853,-0.74334 0.32707,-0.29733 0.50547,-0.47573 0.20813,-0.23787 0.5352,-0.23787 z m -20.54571,20.01051 q 0.68386,-0.50546 1.75426,-3.50852 1.0704,-2.97333 2.11107,-6.92786 -1.8732,2.73546 -3.00307,5.17359 -1.1596,2.43813 -1.18933,4.014 -0.0892,0.68386 0.32707,1.24879 z"
             id="path844" />
          <path
             d="m 387.12817,253.55788 q 0.32706,0 0.5352,0.23786 0.20813,0.23787 0.1784,0.56494 0,0.32706 -0.23787,0.5352 -0.2676,0.23786 -0.7136,0.62439 -0.41626,0.3568 -1.54613,1.18934 -1.12987,0.83253 -2.28946,1.51639 -1.1596,0.68387 -2.73547,1.36774 -1.57586,0.65413 -3.03279,0.92173 -1.45694,0.2676 -3.06253,0.0595 -1.6056,-0.23787 -2.9436,-1.10014 -1.2488,-0.8028 -1.99213,-2.08133 -0.20813,-0.3568 -0.65413,-0.38653 -0.41627,-0.0297 -0.65414,0.32707 -1.04066,1.60559 -2.28946,2.70573 -1.21907,1.10013 -2.25973,1.12986 h -0.0297 q -0.5352,-0.0297 -0.9812,-0.32706 -0.47574,-0.32707 -0.68387,-0.83254 -0.892,-2.22999 0.2676,-4.34106 0.9812,-2.0516 2.73546,-3.47879 1.784,-1.45694 4.014,-1.99214 0.446,-0.11893 0.74333,0.20814 0.32707,0.32706 0.1784,0.77306 -0.11893,0.41627 -0.56493,0.5352 -1.8732,0.446 -3.35986,1.66507 -1.48667,1.18933 -2.3192,2.94359 -0.83253,1.4272 -0.29733,2.97333 0.1784,0.29734 0.2676,0.29734 0.50546,0.32706 1.96239,-1.84347 1.45693,-2.17053 2.61653,-4.69786 0.23787,-0.5352 0.83254,-0.446 0.56493,0.0892 0.65413,0.65413 0.0297,0.14867 0.0595,0.41627 0.0595,0.23787 0.26759,0.92173 0.20814,0.65414 0.47574,1.2488 0.2676,0.59467 0.77306,1.27853 0.50547,0.65414 1.10014,1.04067 1.12986,0.74333 2.52733,0.892 1.42719,0.14866 2.70573,-0.14867 1.30826,-0.29733 2.73546,-0.92173 1.4272,-0.65413 2.46786,-1.30827 1.04067,-0.65413 2.0516,-1.39746 1.01093,-0.74333 1.36773,-1.04067 0.38654,-0.32706 0.56494,-0.50546 0.23786,-0.20814 0.56493,-0.1784 z"
             id="path846" />
        </g>
      </g>
    </g>
  </g>
</svg>
